<mxfile host="app.diagrams.net" modified="2022-12-03T05:30:10.803Z" agent="5.0 (Windows NT 10.0; Win64; x64) AppleWebKit/537.36 (KHTML, like Gecko) Chrome/108.0.0.0 Safari/537.36" etag="S2PuI3195migQWeWTY9H" version="20.6.0" type="github" pages="7">
  <diagram id="2GQ5JuO1ZgtWbISyAiCo" name="a basic class">
    <mxGraphModel dx="638" dy="605" grid="0" gridSize="10" guides="1" tooltips="1" connect="1" arrows="1" fold="1" page="0" pageScale="1" pageWidth="1169" pageHeight="827" math="0" shadow="0">
      <root>
        <mxCell id="0" />
        <mxCell id="1" parent="0" />
        <mxCell id="csJWf5byuf4BfX03tXzI-1" value="" style="rounded=0;whiteSpace=wrap;html=1;" parent="1" vertex="1">
          <mxGeometry x="580" y="110" width="600" height="210" as="geometry" />
        </mxCell>
        <mxCell id="csJWf5byuf4BfX03tXzI-2" value="Classname" style="swimlane;fontStyle=1;align=center;verticalAlign=top;childLayout=stackLayout;horizontal=1;startSize=26;horizontalStack=0;resizeParent=1;resizeParentMax=0;resizeLast=0;collapsible=1;marginBottom=0;" parent="1" vertex="1">
          <mxGeometry x="650" y="150" width="160" height="140" as="geometry" />
        </mxCell>
        <mxCell id="csJWf5byuf4BfX03tXzI-3" value="+ field1: type&#xa;- field2: type" style="text;strokeColor=none;fillColor=none;align=left;verticalAlign=top;spacingLeft=4;spacingRight=4;overflow=hidden;rotatable=0;points=[[0,0.5],[1,0.5]];portConstraint=eastwest;" parent="csJWf5byuf4BfX03tXzI-2" vertex="1">
          <mxGeometry y="26" width="160" height="44" as="geometry" />
        </mxCell>
        <mxCell id="csJWf5byuf4BfX03tXzI-4" value="" style="line;strokeWidth=1;fillColor=none;align=left;verticalAlign=middle;spacingTop=-1;spacingLeft=3;spacingRight=3;rotatable=0;labelPosition=right;points=[];portConstraint=eastwest;" parent="csJWf5byuf4BfX03tXzI-2" vertex="1">
          <mxGeometry y="70" width="160" height="8" as="geometry" />
        </mxCell>
        <mxCell id="csJWf5byuf4BfX03tXzI-5" value="- methodA(type): type&#xa;+ methodB(type): type&#xa;# methodC(type): type" style="text;strokeColor=none;fillColor=none;align=left;verticalAlign=top;spacingLeft=4;spacingRight=4;overflow=hidden;rotatable=0;points=[[0,0.5],[1,0.5]];portConstraint=eastwest;" parent="csJWf5byuf4BfX03tXzI-2" vertex="1">
          <mxGeometry y="78" width="160" height="62" as="geometry" />
        </mxCell>
        <mxCell id="csJWf5byuf4BfX03tXzI-6" value="Car" style="swimlane;fontStyle=1;align=center;verticalAlign=top;childLayout=stackLayout;horizontal=1;startSize=26;horizontalStack=0;resizeParent=1;resizeParentMax=0;resizeLast=0;collapsible=1;marginBottom=0;" parent="1" vertex="1">
          <mxGeometry x="950" y="150" width="160" height="110" as="geometry" />
        </mxCell>
        <mxCell id="csJWf5byuf4BfX03tXzI-7" value="- wheelCount: number&#xa;+ running: boolean" style="text;strokeColor=none;fillColor=none;align=left;verticalAlign=top;spacingLeft=4;spacingRight=4;overflow=hidden;rotatable=0;points=[[0,0.5],[1,0.5]];portConstraint=eastwest;" parent="csJWf5byuf4BfX03tXzI-6" vertex="1">
          <mxGeometry y="26" width="160" height="34" as="geometry" />
        </mxCell>
        <mxCell id="csJWf5byuf4BfX03tXzI-8" value="" style="line;strokeWidth=1;fillColor=none;align=left;verticalAlign=middle;spacingTop=-1;spacingLeft=3;spacingRight=3;rotatable=0;labelPosition=right;points=[];portConstraint=eastwest;" parent="csJWf5byuf4BfX03tXzI-6" vertex="1">
          <mxGeometry y="60" width="160" height="8" as="geometry" />
        </mxCell>
        <mxCell id="csJWf5byuf4BfX03tXzI-9" value="+ startEngine(void): boolean&#xa;+ setSpeed(number): void" style="text;strokeColor=none;fillColor=none;align=left;verticalAlign=top;spacingLeft=4;spacingRight=4;overflow=hidden;rotatable=0;points=[[0,0.5],[1,0.5]];portConstraint=eastwest;" parent="csJWf5byuf4BfX03tXzI-6" vertex="1">
          <mxGeometry y="68" width="160" height="42" as="geometry" />
        </mxCell>
        <mxCell id="csJWf5byuf4BfX03tXzI-10" value="Conceptual" style="text;html=1;align=center;verticalAlign=middle;resizable=0;points=[];autosize=1;" parent="1" vertex="1">
          <mxGeometry x="690" y="120" width="80" height="20" as="geometry" />
        </mxCell>
        <mxCell id="csJWf5byuf4BfX03tXzI-11" value="Example" style="text;html=1;align=center;verticalAlign=middle;resizable=0;points=[];autosize=1;" parent="1" vertex="1">
          <mxGeometry x="1000" y="120" width="60" height="20" as="geometry" />
        </mxCell>
        <mxCell id="csJWf5byuf4BfX03tXzI-12" value="" style="endArrow=none;dashed=1;html=1;dashPattern=1 3;strokeWidth=2;" parent="1" edge="1">
          <mxGeometry width="50" height="50" relative="1" as="geometry">
            <mxPoint x="879.6600000000001" y="310" as="sourcePoint" />
            <mxPoint x="879.6600000000001" y="130" as="targetPoint" />
          </mxGeometry>
        </mxCell>
        <mxCell id="csJWf5byuf4BfX03tXzI-13" value="public" style="text;html=1;align=right;verticalAlign=middle;resizable=0;points=[];autosize=1;" parent="1" vertex="1">
          <mxGeometry x="580" y="170" width="50" height="20" as="geometry" />
        </mxCell>
        <mxCell id="csJWf5byuf4BfX03tXzI-14" value="private" style="text;html=1;align=right;verticalAlign=middle;resizable=0;points=[];autosize=1;" parent="1" vertex="1">
          <mxGeometry x="580" y="200" width="50" height="20" as="geometry" />
        </mxCell>
        <mxCell id="csJWf5byuf4BfX03tXzI-15" value="" style="endArrow=none;html=1;dashed=1;exitX=-0.009;exitY=0.254;exitDx=0;exitDy=0;exitPerimeter=0;" parent="1" source="csJWf5byuf4BfX03tXzI-3" target="csJWf5byuf4BfX03tXzI-13" edge="1">
          <mxGeometry width="50" height="50" relative="1" as="geometry">
            <mxPoint x="693" y="233.04477611940302" as="sourcePoint" />
            <mxPoint x="639" y="227" as="targetPoint" />
          </mxGeometry>
        </mxCell>
        <mxCell id="csJWf5byuf4BfX03tXzI-16" value="" style="endArrow=none;html=1;dashed=1;" parent="1" source="csJWf5byuf4BfX03tXzI-3" target="csJWf5byuf4BfX03tXzI-14" edge="1">
          <mxGeometry width="50" height="50" relative="1" as="geometry">
            <mxPoint x="695" y="246" as="sourcePoint" />
            <mxPoint x="649" y="237" as="targetPoint" />
          </mxGeometry>
        </mxCell>
      </root>
    </mxGraphModel>
  </diagram>
  <diagram id="XTwyj4uOlEBWpYVIC3kC" name="A filled arrow with a line.">
    <mxGraphModel dx="1438" dy="605" grid="0" gridSize="10" guides="1" tooltips="1" connect="1" arrows="1" fold="1" page="0" pageScale="1" pageWidth="827" pageHeight="1169" math="0" shadow="0">
      <root>
        <mxCell id="0" />
        <mxCell id="1" parent="0" />
        <mxCell id="313QQmJ2WrNW_vUnB_Ez-1" value="" style="rounded=0;whiteSpace=wrap;html=1;" vertex="1" parent="1">
          <mxGeometry x="-21.999975585937506" y="129" width="600" height="290" as="geometry" />
        </mxCell>
        <mxCell id="313QQmJ2WrNW_vUnB_Ez-2" value="ClassA" style="swimlane;fontStyle=1;align=center;verticalAlign=top;childLayout=stackLayout;horizontal=1;startSize=26;horizontalStack=0;resizeParent=1;resizeParentMax=0;resizeLast=0;collapsible=1;marginBottom=0;" vertex="1" parent="1">
          <mxGeometry x="48.000024414062494" y="305" width="160" height="86" as="geometry" />
        </mxCell>
        <mxCell id="313QQmJ2WrNW_vUnB_Ez-3" value="+ field: type" style="text;strokeColor=none;fillColor=none;align=left;verticalAlign=top;spacingLeft=4;spacingRight=4;overflow=hidden;rotatable=0;points=[[0,0.5],[1,0.5]];portConstraint=eastwest;" vertex="1" parent="313QQmJ2WrNW_vUnB_Ez-2">
          <mxGeometry y="26" width="160" height="26" as="geometry" />
        </mxCell>
        <mxCell id="313QQmJ2WrNW_vUnB_Ez-4" value="" style="line;strokeWidth=1;fillColor=none;align=left;verticalAlign=middle;spacingTop=-1;spacingLeft=3;spacingRight=3;rotatable=0;labelPosition=right;points=[];portConstraint=eastwest;" vertex="1" parent="313QQmJ2WrNW_vUnB_Ez-2">
          <mxGeometry y="52" width="160" height="8" as="geometry" />
        </mxCell>
        <mxCell id="313QQmJ2WrNW_vUnB_Ez-5" value="+ method(type): type" style="text;strokeColor=none;fillColor=none;align=left;verticalAlign=top;spacingLeft=4;spacingRight=4;overflow=hidden;rotatable=0;points=[[0,0.5],[1,0.5]];portConstraint=eastwest;" vertex="1" parent="313QQmJ2WrNW_vUnB_Ez-2">
          <mxGeometry y="60" width="160" height="26" as="geometry" />
        </mxCell>
        <mxCell id="313QQmJ2WrNW_vUnB_Ez-6" value="Person" style="swimlane;fontStyle=1;align=center;verticalAlign=top;childLayout=stackLayout;horizontal=1;startSize=26;horizontalStack=0;resizeParent=1;resizeParentMax=0;resizeLast=0;collapsible=1;marginBottom=0;" vertex="1" parent="1">
          <mxGeometry x="348.0000244140625" y="303" width="160" height="90" as="geometry" />
        </mxCell>
        <mxCell id="313QQmJ2WrNW_vUnB_Ez-7" value="+ name: string" style="text;strokeColor=none;fillColor=none;align=left;verticalAlign=top;spacingLeft=4;spacingRight=4;overflow=hidden;rotatable=0;points=[[0,0.5],[1,0.5]];portConstraint=eastwest;" vertex="1" parent="313QQmJ2WrNW_vUnB_Ez-6">
          <mxGeometry y="26" width="160" height="24" as="geometry" />
        </mxCell>
        <mxCell id="313QQmJ2WrNW_vUnB_Ez-8" value="" style="line;strokeWidth=1;fillColor=none;align=left;verticalAlign=middle;spacingTop=-1;spacingLeft=3;spacingRight=3;rotatable=0;labelPosition=right;points=[];portConstraint=eastwest;" vertex="1" parent="313QQmJ2WrNW_vUnB_Ez-6">
          <mxGeometry y="50" width="160" height="8" as="geometry" />
        </mxCell>
        <mxCell id="313QQmJ2WrNW_vUnB_Ez-9" value="+ speak(string): void" style="text;strokeColor=none;fillColor=none;align=left;verticalAlign=top;spacingLeft=4;spacingRight=4;overflow=hidden;rotatable=0;points=[[0,0.5],[1,0.5]];portConstraint=eastwest;" vertex="1" parent="313QQmJ2WrNW_vUnB_Ez-6">
          <mxGeometry y="58" width="160" height="32" as="geometry" />
        </mxCell>
        <mxCell id="313QQmJ2WrNW_vUnB_Ez-10" value="Conceptual" style="text;html=1;align=center;verticalAlign=middle;resizable=0;points=[];autosize=1;" vertex="1" parent="1">
          <mxGeometry x="88.0000244140625" y="139" width="80" height="20" as="geometry" />
        </mxCell>
        <mxCell id="313QQmJ2WrNW_vUnB_Ez-11" value="Example" style="text;html=1;align=center;verticalAlign=middle;resizable=0;points=[];autosize=1;" vertex="1" parent="1">
          <mxGeometry x="398.0000244140625" y="139" width="60" height="20" as="geometry" />
        </mxCell>
        <mxCell id="313QQmJ2WrNW_vUnB_Ez-12" value="" style="endArrow=none;dashed=1;html=1;dashPattern=1 3;strokeWidth=2;" edge="1" parent="1">
          <mxGeometry width="50" height="50" relative="1" as="geometry">
            <mxPoint x="277.6600244140625" y="389" as="sourcePoint" />
            <mxPoint x="277.6600244140625" y="139" as="targetPoint" />
          </mxGeometry>
        </mxCell>
        <mxCell id="313QQmJ2WrNW_vUnB_Ez-13" value="ClassB" style="swimlane;fontStyle=1;align=center;verticalAlign=top;childLayout=stackLayout;horizontal=1;startSize=26;horizontalStack=0;resizeParent=1;resizeParentMax=0;resizeLast=0;collapsible=1;marginBottom=0;" vertex="1" parent="1">
          <mxGeometry x="48.000024414062494" y="169" width="160" height="86" as="geometry">
            <mxRectangle x="48.000024414062494" y="169" width="76" height="26" as="alternateBounds" />
          </mxGeometry>
        </mxCell>
        <mxCell id="313QQmJ2WrNW_vUnB_Ez-14" value="+ field: type" style="text;strokeColor=none;fillColor=none;align=left;verticalAlign=top;spacingLeft=4;spacingRight=4;overflow=hidden;rotatable=0;points=[[0,0.5],[1,0.5]];portConstraint=eastwest;" vertex="1" parent="313QQmJ2WrNW_vUnB_Ez-13">
          <mxGeometry y="26" width="160" height="26" as="geometry" />
        </mxCell>
        <mxCell id="313QQmJ2WrNW_vUnB_Ez-15" value="" style="line;strokeWidth=1;fillColor=none;align=left;verticalAlign=middle;spacingTop=-1;spacingLeft=3;spacingRight=3;rotatable=0;labelPosition=right;points=[];portConstraint=eastwest;" vertex="1" parent="313QQmJ2WrNW_vUnB_Ez-13">
          <mxGeometry y="52" width="160" height="8" as="geometry" />
        </mxCell>
        <mxCell id="313QQmJ2WrNW_vUnB_Ez-16" value="+ method(type): type" style="text;strokeColor=none;fillColor=none;align=left;verticalAlign=top;spacingLeft=4;spacingRight=4;overflow=hidden;rotatable=0;points=[[0,0.5],[1,0.5]];portConstraint=eastwest;" vertex="1" parent="313QQmJ2WrNW_vUnB_Ez-13">
          <mxGeometry y="60" width="160" height="26" as="geometry" />
        </mxCell>
        <mxCell id="313QQmJ2WrNW_vUnB_Ez-17" style="edgeStyle=orthogonalEdgeStyle;rounded=0;orthogonalLoop=1;jettySize=auto;html=1;exitX=0.5;exitY=0;exitDx=0;exitDy=0;entryX=0.5;entryY=1.012;entryDx=0;entryDy=0;endArrow=block;endFill=1;entryPerimeter=0;endSize=12;" edge="1" parent="1" source="313QQmJ2WrNW_vUnB_Ez-2" target="313QQmJ2WrNW_vUnB_Ez-16">
          <mxGeometry relative="1" as="geometry">
            <mxPoint x="198.0000244140625" y="633" as="targetPoint" />
          </mxGeometry>
        </mxCell>
        <mxCell id="313QQmJ2WrNW_vUnB_Ez-18" value="Car" style="swimlane;fontStyle=1;align=center;verticalAlign=top;childLayout=stackLayout;horizontal=1;startSize=26;horizontalStack=0;resizeParent=1;resizeParentMax=0;resizeLast=0;collapsible=1;marginBottom=0;" vertex="1" parent="1">
          <mxGeometry x="348.0000244140625" y="169" width="160" height="100" as="geometry" />
        </mxCell>
        <mxCell id="313QQmJ2WrNW_vUnB_Ez-19" value="+ field: type" style="text;strokeColor=none;fillColor=none;align=left;verticalAlign=top;spacingLeft=4;spacingRight=4;overflow=hidden;rotatable=0;points=[[0,0.5],[1,0.5]];portConstraint=eastwest;" vertex="1" parent="313QQmJ2WrNW_vUnB_Ez-18">
          <mxGeometry y="26" width="160" height="24" as="geometry" />
        </mxCell>
        <mxCell id="313QQmJ2WrNW_vUnB_Ez-20" value="" style="line;strokeWidth=1;fillColor=none;align=left;verticalAlign=middle;spacingTop=-1;spacingLeft=3;spacingRight=3;rotatable=0;labelPosition=right;points=[];portConstraint=eastwest;" vertex="1" parent="313QQmJ2WrNW_vUnB_Ez-18">
          <mxGeometry y="50" width="160" height="8" as="geometry" />
        </mxCell>
        <mxCell id="313QQmJ2WrNW_vUnB_Ez-21" value="+ startEngine(void): boolean&#xa;+ setSpeed(number): void" style="text;strokeColor=none;fillColor=none;align=left;verticalAlign=top;spacingLeft=4;spacingRight=4;overflow=hidden;rotatable=0;points=[[0,0.5],[1,0.5]];portConstraint=eastwest;" vertex="1" parent="313QQmJ2WrNW_vUnB_Ez-18">
          <mxGeometry y="58" width="160" height="42" as="geometry" />
        </mxCell>
        <mxCell id="313QQmJ2WrNW_vUnB_Ez-22" style="edgeStyle=orthogonalEdgeStyle;rounded=0;orthogonalLoop=1;jettySize=auto;html=1;exitX=0.5;exitY=0;exitDx=0;exitDy=0;entryX=0.499;entryY=0.994;entryDx=0;entryDy=0;endArrow=block;endFill=1;entryPerimeter=0;endSize=12;" edge="1" parent="1" source="313QQmJ2WrNW_vUnB_Ez-6" target="313QQmJ2WrNW_vUnB_Ez-21">
          <mxGeometry relative="1" as="geometry">
            <mxPoint x="188.0000244140625" y="274.61" as="sourcePoint" />
            <mxPoint x="188.0000244140625" y="319" as="targetPoint" />
          </mxGeometry>
        </mxCell>
        <mxCell id="XsxS5iLYuL67UbKg0R0M-1" value="&lt;span style=&quot;color: rgb(245, 246, 247); font-family: system-ui, -apple-system, &amp;quot;Segoe UI&amp;quot;, Roboto, Ubuntu, Cantarell, &amp;quot;Noto Sans&amp;quot;, sans-serif, BlinkMacSystemFont, &amp;quot;Segoe UI&amp;quot;, Helvetica, Arial, sans-serif, &amp;quot;Apple Color Emoji&amp;quot;, &amp;quot;Segoe UI Emoji&amp;quot;, &amp;quot;Segoe UI Symbol&amp;quot;; font-size: 18px; orphans: 4; text-align: start; background-color: rgb(24, 25, 26);&quot;&gt;ClassA 使用 ClassB 或 ClassB 的对象，&lt;/span&gt;&lt;span style=&quot;color: rgb(245, 246, 247); font-family: system-ui, -apple-system, &amp;quot;Segoe UI&amp;quot;, Roboto, Ubuntu, Cantarell, &amp;quot;Noto Sans&amp;quot;, sans-serif, BlinkMacSystemFont, &amp;quot;Segoe UI&amp;quot;, Helvetica, Arial, sans-serif, &amp;quot;Apple Color Emoji&amp;quot;, &amp;quot;Segoe UI Emoji&amp;quot;, &amp;quot;Segoe UI Symbol&amp;quot;; font-size: 18px; orphans: 4; text-align: start; background-color: rgb(24, 25, 26);&quot;&gt;例如右边的示例：人使用汽车&lt;/span&gt;" style="text;html=1;align=center;verticalAlign=middle;resizable=0;points=[];autosize=1;strokeColor=none;fillColor=none;fontSize=20;" vertex="1" parent="1">
          <mxGeometry x="-10" y="74" width="570" height="36" as="geometry" />
        </mxCell>
      </root>
    </mxGraphModel>
  </diagram>
  <diagram id="lADcbk_uAQsaDEvzIXgS" name="ClassA extends ClassB.">
    <mxGraphModel dx="1438" dy="605" grid="0" gridSize="10" guides="1" tooltips="1" connect="1" arrows="1" fold="1" page="0" pageScale="1" pageWidth="827" pageHeight="1169" math="0" shadow="0">
      <root>
        <mxCell id="0" />
        <mxCell id="1" parent="0" />
        <mxCell id="b12OMYuAhLry3CwH1L1o-1" value="" style="rounded=0;whiteSpace=wrap;html=1;" vertex="1" parent="1">
          <mxGeometry x="-30.999975585937477" y="116.0000244140625" width="600" height="290" as="geometry" />
        </mxCell>
        <mxCell id="b12OMYuAhLry3CwH1L1o-2" value="ExtendedClass" style="swimlane;fontStyle=1;align=center;verticalAlign=top;childLayout=stackLayout;horizontal=1;startSize=26;horizontalStack=0;resizeParent=1;resizeParentMax=0;resizeLast=0;collapsible=1;marginBottom=0;" vertex="1" parent="1">
          <mxGeometry x="39.00002441406252" y="300.0000244140625" width="160" height="86" as="geometry" />
        </mxCell>
        <mxCell id="b12OMYuAhLry3CwH1L1o-3" value="+ anotherField: type" style="text;strokeColor=none;fillColor=none;align=left;verticalAlign=top;spacingLeft=4;spacingRight=4;overflow=hidden;rotatable=0;points=[[0,0.5],[1,0.5]];portConstraint=eastwest;" vertex="1" parent="b12OMYuAhLry3CwH1L1o-2">
          <mxGeometry y="26" width="160" height="26" as="geometry" />
        </mxCell>
        <mxCell id="b12OMYuAhLry3CwH1L1o-4" value="" style="line;strokeWidth=1;fillColor=none;align=left;verticalAlign=middle;spacingTop=-1;spacingLeft=3;spacingRight=3;rotatable=0;labelPosition=right;points=[];portConstraint=eastwest;" vertex="1" parent="b12OMYuAhLry3CwH1L1o-2">
          <mxGeometry y="52" width="160" height="8" as="geometry" />
        </mxCell>
        <mxCell id="b12OMYuAhLry3CwH1L1o-5" value="+ anotherMethod(type): type" style="text;strokeColor=none;fillColor=none;align=left;verticalAlign=top;spacingLeft=4;spacingRight=4;overflow=hidden;rotatable=0;points=[[0,0.5],[1,0.5]];portConstraint=eastwest;" vertex="1" parent="b12OMYuAhLry3CwH1L1o-2">
          <mxGeometry y="60" width="160" height="26" as="geometry" />
        </mxCell>
        <mxCell id="b12OMYuAhLry3CwH1L1o-6" value="Fancy Car" style="swimlane;fontStyle=1;align=center;verticalAlign=top;childLayout=stackLayout;horizontal=1;startSize=26;horizontalStack=0;resizeParent=1;resizeParentMax=0;resizeLast=0;collapsible=1;marginBottom=0;" vertex="1" parent="1">
          <mxGeometry x="339.0000244140625" y="296.0000244140625" width="170" height="90" as="geometry" />
        </mxCell>
        <mxCell id="b12OMYuAhLry3CwH1L1o-7" value="+ turboOn: boolean" style="text;strokeColor=none;fillColor=none;align=left;verticalAlign=top;spacingLeft=4;spacingRight=4;overflow=hidden;rotatable=0;points=[[0,0.5],[1,0.5]];portConstraint=eastwest;" vertex="1" parent="b12OMYuAhLry3CwH1L1o-6">
          <mxGeometry y="26" width="170" height="24" as="geometry" />
        </mxCell>
        <mxCell id="b12OMYuAhLry3CwH1L1o-8" value="" style="line;strokeWidth=1;fillColor=none;align=left;verticalAlign=middle;spacingTop=-1;spacingLeft=3;spacingRight=3;rotatable=0;labelPosition=right;points=[];portConstraint=eastwest;" vertex="1" parent="b12OMYuAhLry3CwH1L1o-6">
          <mxGeometry y="50" width="170" height="8" as="geometry" />
        </mxCell>
        <mxCell id="b12OMYuAhLry3CwH1L1o-9" value="+ enableTurbo(boolean): void" style="text;strokeColor=none;fillColor=none;align=left;verticalAlign=top;spacingLeft=4;spacingRight=4;overflow=hidden;rotatable=0;points=[[0,0.5],[1,0.5]];portConstraint=eastwest;" vertex="1" parent="b12OMYuAhLry3CwH1L1o-6">
          <mxGeometry y="58" width="170" height="32" as="geometry" />
        </mxCell>
        <mxCell id="b12OMYuAhLry3CwH1L1o-10" value="Conceptual" style="text;html=1;align=center;verticalAlign=middle;resizable=0;points=[];autosize=1;" vertex="1" parent="1">
          <mxGeometry x="79.00002441406252" y="126.0000244140625" width="80" height="20" as="geometry" />
        </mxCell>
        <mxCell id="b12OMYuAhLry3CwH1L1o-11" value="Example" style="text;html=1;align=center;verticalAlign=middle;resizable=0;points=[];autosize=1;" vertex="1" parent="1">
          <mxGeometry x="389.0000244140625" y="126.0000244140625" width="60" height="20" as="geometry" />
        </mxCell>
        <mxCell id="b12OMYuAhLry3CwH1L1o-12" value="" style="endArrow=none;dashed=1;html=1;dashPattern=1 3;strokeWidth=2;" edge="1" parent="1">
          <mxGeometry width="50" height="50" relative="1" as="geometry">
            <mxPoint x="268.5000244140625" y="392.0000244140625" as="sourcePoint" />
            <mxPoint x="268.5000244140625" y="132.0000244140625" as="targetPoint" />
          </mxGeometry>
        </mxCell>
        <mxCell id="b12OMYuAhLry3CwH1L1o-13" value="Class" style="swimlane;fontStyle=1;align=center;verticalAlign=top;childLayout=stackLayout;horizontal=1;startSize=26;horizontalStack=0;resizeParent=1;resizeParentMax=0;resizeLast=0;collapsible=1;marginBottom=0;" vertex="1" parent="1">
          <mxGeometry x="39.00002441406252" y="156.0000244140625" width="160" height="86" as="geometry" />
        </mxCell>
        <mxCell id="b12OMYuAhLry3CwH1L1o-14" value="+ field: type" style="text;strokeColor=none;fillColor=none;align=left;verticalAlign=top;spacingLeft=4;spacingRight=4;overflow=hidden;rotatable=0;points=[[0,0.5],[1,0.5]];portConstraint=eastwest;" vertex="1" parent="b12OMYuAhLry3CwH1L1o-13">
          <mxGeometry y="26" width="160" height="26" as="geometry" />
        </mxCell>
        <mxCell id="b12OMYuAhLry3CwH1L1o-15" value="" style="line;strokeWidth=1;fillColor=none;align=left;verticalAlign=middle;spacingTop=-1;spacingLeft=3;spacingRight=3;rotatable=0;labelPosition=right;points=[];portConstraint=eastwest;" vertex="1" parent="b12OMYuAhLry3CwH1L1o-13">
          <mxGeometry y="52" width="160" height="8" as="geometry" />
        </mxCell>
        <mxCell id="b12OMYuAhLry3CwH1L1o-16" value="+ method(type): type" style="text;strokeColor=none;fillColor=none;align=left;verticalAlign=top;spacingLeft=4;spacingRight=4;overflow=hidden;rotatable=0;points=[[0,0.5],[1,0.5]];portConstraint=eastwest;" vertex="1" parent="b12OMYuAhLry3CwH1L1o-13">
          <mxGeometry y="60" width="160" height="26" as="geometry" />
        </mxCell>
        <mxCell id="b12OMYuAhLry3CwH1L1o-17" style="edgeStyle=orthogonalEdgeStyle;rounded=0;orthogonalLoop=1;jettySize=auto;html=1;exitX=0.5;exitY=0;exitDx=0;exitDy=0;entryX=0.5;entryY=1.012;entryDx=0;entryDy=0;endArrow=block;endFill=0;entryPerimeter=0;endSize=12;" edge="1" parent="1" source="b12OMYuAhLry3CwH1L1o-2" target="b12OMYuAhLry3CwH1L1o-16">
          <mxGeometry relative="1" as="geometry">
            <mxPoint x="179.00002441406252" y="626.0000244140625" as="targetPoint" />
          </mxGeometry>
        </mxCell>
        <mxCell id="b12OMYuAhLry3CwH1L1o-18" value="Car" style="swimlane;fontStyle=1;align=center;verticalAlign=top;childLayout=stackLayout;horizontal=1;startSize=26;horizontalStack=0;resizeParent=1;resizeParentMax=0;resizeLast=0;collapsible=1;marginBottom=0;" vertex="1" parent="1">
          <mxGeometry x="339.0000244140625" y="156.0000244140625" width="170" height="110" as="geometry" />
        </mxCell>
        <mxCell id="b12OMYuAhLry3CwH1L1o-19" value="+ wheelCount: number&#xa;+ running: boolean" style="text;strokeColor=none;fillColor=none;align=left;verticalAlign=top;spacingLeft=4;spacingRight=4;overflow=hidden;rotatable=0;points=[[0,0.5],[1,0.5]];portConstraint=eastwest;" vertex="1" parent="b12OMYuAhLry3CwH1L1o-18">
          <mxGeometry y="26" width="170" height="34" as="geometry" />
        </mxCell>
        <mxCell id="b12OMYuAhLry3CwH1L1o-20" value="" style="line;strokeWidth=1;fillColor=none;align=left;verticalAlign=middle;spacingTop=-1;spacingLeft=3;spacingRight=3;rotatable=0;labelPosition=right;points=[];portConstraint=eastwest;" vertex="1" parent="b12OMYuAhLry3CwH1L1o-18">
          <mxGeometry y="60" width="170" height="8" as="geometry" />
        </mxCell>
        <mxCell id="b12OMYuAhLry3CwH1L1o-21" value="+ startEngine(void): bool&#xa;+ setSpeed(number): void" style="text;strokeColor=none;fillColor=none;align=left;verticalAlign=top;spacingLeft=4;spacingRight=4;overflow=hidden;rotatable=0;points=[[0,0.5],[1,0.5]];portConstraint=eastwest;" vertex="1" parent="b12OMYuAhLry3CwH1L1o-18">
          <mxGeometry y="68" width="170" height="42" as="geometry" />
        </mxCell>
        <mxCell id="b12OMYuAhLry3CwH1L1o-22" style="edgeStyle=orthogonalEdgeStyle;rounded=0;orthogonalLoop=1;jettySize=auto;html=1;exitX=0.5;exitY=0;exitDx=0;exitDy=0;entryX=0.499;entryY=0.994;entryDx=0;entryDy=0;endArrow=block;endFill=0;entryPerimeter=0;endSize=12;" edge="1" parent="1" source="b12OMYuAhLry3CwH1L1o-6" target="b12OMYuAhLry3CwH1L1o-21">
          <mxGeometry relative="1" as="geometry">
            <mxPoint x="149.00002441406252" y="271.61002441406254" as="sourcePoint" />
            <mxPoint x="149.00002441406252" y="316.0000244140625" as="targetPoint" />
          </mxGeometry>
        </mxCell>
        <mxCell id="5dKsYFr8ndXGYXB57na1-1" value="继承使用实线+空心箭头表示" style="text;html=1;strokeColor=none;fillColor=none;align=center;verticalAlign=middle;whiteSpace=wrap;rounded=0;fontSize=20;" vertex="1" parent="1">
          <mxGeometry x="125" y="87" width="281" height="16" as="geometry" />
        </mxCell>
      </root>
    </mxGraphModel>
  </diagram>
  <diagram id="oZpwSq6sxuS_GcqPpCwG" name="使用接口的类">
    <mxGraphModel dx="1438" dy="1005" grid="0" gridSize="10" guides="1" tooltips="1" connect="1" arrows="1" fold="1" page="0" pageScale="1" pageWidth="827" pageHeight="1169" math="0" shadow="0">
      <root>
        <mxCell id="0" />
        <mxCell id="1" parent="0" />
        <mxCell id="bkQJTuIInWNjO8qoAOuI-2" value="" style="rounded=0;whiteSpace=wrap;html=1;" vertex="1" parent="1">
          <mxGeometry x="-38.999975585937506" y="33.000024414062494" width="600" height="330" as="geometry" />
        </mxCell>
        <mxCell id="bkQJTuIInWNjO8qoAOuI-3" value="ClassA" style="swimlane;fontStyle=1;align=center;verticalAlign=top;childLayout=stackLayout;horizontal=1;startSize=26;horizontalStack=0;resizeParent=1;resizeParentMax=0;resizeLast=0;collapsible=1;marginBottom=0;" vertex="1" parent="1">
          <mxGeometry x="31.000024414062494" y="247.0000244140625" width="160" height="86" as="geometry" />
        </mxCell>
        <mxCell id="bkQJTuIInWNjO8qoAOuI-4" value="+ field: type" style="text;strokeColor=none;fillColor=none;align=left;verticalAlign=top;spacingLeft=4;spacingRight=4;overflow=hidden;rotatable=0;points=[[0,0.5],[1,0.5]];portConstraint=eastwest;" vertex="1" parent="bkQJTuIInWNjO8qoAOuI-3">
          <mxGeometry y="26" width="160" height="26" as="geometry" />
        </mxCell>
        <mxCell id="bkQJTuIInWNjO8qoAOuI-5" value="" style="line;strokeWidth=1;fillColor=none;align=left;verticalAlign=middle;spacingTop=-1;spacingLeft=3;spacingRight=3;rotatable=0;labelPosition=right;points=[];portConstraint=eastwest;" vertex="1" parent="bkQJTuIInWNjO8qoAOuI-3">
          <mxGeometry y="52" width="160" height="8" as="geometry" />
        </mxCell>
        <mxCell id="bkQJTuIInWNjO8qoAOuI-6" value="+ method(type): type" style="text;strokeColor=none;fillColor=none;align=left;verticalAlign=top;spacingLeft=4;spacingRight=4;overflow=hidden;rotatable=0;points=[[0,0.5],[1,0.5]];portConstraint=eastwest;" vertex="1" parent="bkQJTuIInWNjO8qoAOuI-3">
          <mxGeometry y="60" width="160" height="26" as="geometry" />
        </mxCell>
        <mxCell id="bkQJTuIInWNjO8qoAOuI-7" value="Car" style="swimlane;fontStyle=1;align=center;verticalAlign=top;childLayout=stackLayout;horizontal=1;startSize=26;horizontalStack=0;resizeParent=1;resizeParentMax=0;resizeLast=0;collapsible=1;marginBottom=0;" vertex="1" parent="1">
          <mxGeometry x="331.0000244140625" y="223.0000244140625" width="160" height="110" as="geometry" />
        </mxCell>
        <mxCell id="bkQJTuIInWNjO8qoAOuI-8" value="- wheelCount: number&#xa;- running: boolean" style="text;strokeColor=none;fillColor=none;align=left;verticalAlign=top;spacingLeft=4;spacingRight=4;overflow=hidden;rotatable=0;points=[[0,0.5],[1,0.5]];portConstraint=eastwest;" vertex="1" parent="bkQJTuIInWNjO8qoAOuI-7">
          <mxGeometry y="26" width="160" height="34" as="geometry" />
        </mxCell>
        <mxCell id="bkQJTuIInWNjO8qoAOuI-9" value="" style="line;strokeWidth=1;fillColor=none;align=left;verticalAlign=middle;spacingTop=-1;spacingLeft=3;spacingRight=3;rotatable=0;labelPosition=right;points=[];portConstraint=eastwest;" vertex="1" parent="bkQJTuIInWNjO8qoAOuI-7">
          <mxGeometry y="60" width="160" height="8" as="geometry" />
        </mxCell>
        <mxCell id="bkQJTuIInWNjO8qoAOuI-10" value="+ startEngine(void): boolean&#xa;+ setSpeed(number): void" style="text;strokeColor=none;fillColor=none;align=left;verticalAlign=top;spacingLeft=4;spacingRight=4;overflow=hidden;rotatable=0;points=[[0,0.5],[1,0.5]];portConstraint=eastwest;" vertex="1" parent="bkQJTuIInWNjO8qoAOuI-7">
          <mxGeometry y="68" width="160" height="42" as="geometry" />
        </mxCell>
        <mxCell id="bkQJTuIInWNjO8qoAOuI-11" value="Conceptual" style="text;html=1;align=center;verticalAlign=middle;resizable=0;points=[];autosize=1;" vertex="1" parent="1">
          <mxGeometry x="71.0000244140625" y="43.000024414062494" width="80" height="20" as="geometry" />
        </mxCell>
        <mxCell id="bkQJTuIInWNjO8qoAOuI-12" value="Example" style="text;html=1;align=center;verticalAlign=middle;resizable=0;points=[];autosize=1;" vertex="1" parent="1">
          <mxGeometry x="381.0000244140625" y="43.000024414062494" width="60" height="20" as="geometry" />
        </mxCell>
        <mxCell id="bkQJTuIInWNjO8qoAOuI-13" value="" style="endArrow=none;dashed=1;html=1;dashPattern=1 3;strokeWidth=2;" edge="1" parent="1">
          <mxGeometry width="50" height="50" relative="1" as="geometry">
            <mxPoint x="261.0000244140625" y="343.0000244140625" as="sourcePoint" />
            <mxPoint x="261.0000244140625" y="53.000024414062494" as="targetPoint" />
          </mxGeometry>
        </mxCell>
        <mxCell id="bkQJTuIInWNjO8qoAOuI-14" value="IClassname" style="swimlane;fontStyle=1;align=center;verticalAlign=top;childLayout=stackLayout;horizontal=1;startSize=26;horizontalStack=0;resizeParent=1;resizeParentMax=0;resizeLast=0;collapsible=1;marginBottom=0;" vertex="1" parent="1">
          <mxGeometry x="31.000024414062494" y="73.0000244140625" width="160" height="60" as="geometry" />
        </mxCell>
        <mxCell id="bkQJTuIInWNjO8qoAOuI-15" value="" style="line;strokeWidth=1;fillColor=none;align=left;verticalAlign=middle;spacingTop=-1;spacingLeft=3;spacingRight=3;rotatable=0;labelPosition=right;points=[];portConstraint=eastwest;" vertex="1" parent="bkQJTuIInWNjO8qoAOuI-14">
          <mxGeometry y="26" width="160" height="8" as="geometry" />
        </mxCell>
        <mxCell id="bkQJTuIInWNjO8qoAOuI-16" value="+ method(type): type" style="text;strokeColor=none;fillColor=none;align=left;verticalAlign=top;spacingLeft=4;spacingRight=4;overflow=hidden;rotatable=0;points=[[0,0.5],[1,0.5]];portConstraint=eastwest;" vertex="1" parent="bkQJTuIInWNjO8qoAOuI-14">
          <mxGeometry y="34" width="160" height="26" as="geometry" />
        </mxCell>
        <mxCell id="bkQJTuIInWNjO8qoAOuI-17" style="edgeStyle=orthogonalEdgeStyle;rounded=0;orthogonalLoop=1;jettySize=auto;html=1;exitX=0.5;exitY=0;exitDx=0;exitDy=0;entryX=0.5;entryY=1.012;entryDx=0;entryDy=0;endArrow=block;endFill=0;dashed=1;entryPerimeter=0;endSize=12;" edge="1" parent="1" source="bkQJTuIInWNjO8qoAOuI-3" target="bkQJTuIInWNjO8qoAOuI-16">
          <mxGeometry relative="1" as="geometry">
            <mxPoint x="181.0000244140625" y="543.0000244140625" as="targetPoint" />
          </mxGeometry>
        </mxCell>
        <mxCell id="bkQJTuIInWNjO8qoAOuI-18" value="ICar" style="swimlane;fontStyle=1;align=center;verticalAlign=top;childLayout=stackLayout;horizontal=1;startSize=26;horizontalStack=0;resizeParent=1;resizeParentMax=0;resizeLast=0;collapsible=1;marginBottom=0;" vertex="1" parent="1">
          <mxGeometry x="331.0000244140625" y="73.0000244140625" width="160" height="76" as="geometry" />
        </mxCell>
        <mxCell id="bkQJTuIInWNjO8qoAOuI-19" value="" style="line;strokeWidth=1;fillColor=none;align=left;verticalAlign=middle;spacingTop=-1;spacingLeft=3;spacingRight=3;rotatable=0;labelPosition=right;points=[];portConstraint=eastwest;" vertex="1" parent="bkQJTuIInWNjO8qoAOuI-18">
          <mxGeometry y="26" width="160" height="8" as="geometry" />
        </mxCell>
        <mxCell id="bkQJTuIInWNjO8qoAOuI-20" value="+ startEngine(void): boolean&#xa;+ setSpeed(number): void" style="text;strokeColor=none;fillColor=none;align=left;verticalAlign=top;spacingLeft=4;spacingRight=4;overflow=hidden;rotatable=0;points=[[0,0.5],[1,0.5]];portConstraint=eastwest;" vertex="1" parent="bkQJTuIInWNjO8qoAOuI-18">
          <mxGeometry y="34" width="160" height="42" as="geometry" />
        </mxCell>
        <mxCell id="bkQJTuIInWNjO8qoAOuI-21" style="edgeStyle=orthogonalEdgeStyle;rounded=0;orthogonalLoop=1;jettySize=auto;html=1;exitX=0.5;exitY=0;exitDx=0;exitDy=0;entryX=0.499;entryY=0.994;entryDx=0;entryDy=0;endArrow=block;endFill=0;dashed=1;entryPerimeter=0;endSize=12;" edge="1" parent="1" source="bkQJTuIInWNjO8qoAOuI-7" target="bkQJTuIInWNjO8qoAOuI-20">
          <mxGeometry relative="1" as="geometry">
            <mxPoint x="131.0000244140625" y="188.6100244140625" as="sourcePoint" />
            <mxPoint x="131.0000244140625" y="233.0000244140625" as="targetPoint" />
          </mxGeometry>
        </mxCell>
        <mxCell id="-W2CUJl6tQZHJb8dTewS-1" value="&lt;font style=&quot;font-size: 20px;&quot;&gt;使用虚线+空心箭头表示&lt;/font&gt;" style="text;html=1;strokeColor=none;fillColor=none;align=center;verticalAlign=middle;whiteSpace=wrap;rounded=0;" vertex="1" parent="1">
          <mxGeometry x="64" y="1" width="370" height="20" as="geometry" />
        </mxCell>
      </root>
    </mxGraphModel>
  </diagram>
  <diagram id="0Pf4bKyry91BlvDKfeHV" name="Aggregates">
    <mxGraphModel dx="1438" dy="605" grid="0" gridSize="10" guides="1" tooltips="1" connect="1" arrows="1" fold="1" page="0" pageScale="1" pageWidth="827" pageHeight="1169" math="0" shadow="0">
      <root>
        <mxCell id="0" />
        <mxCell id="1" parent="0" />
        <mxCell id="A4NnMp-pcTULbfI7vZ6G-1" value="" style="rounded=0;whiteSpace=wrap;html=1;" vertex="1" parent="1">
          <mxGeometry x="-19.999975585937506" y="122.0000244140625" width="600" height="300" as="geometry" />
        </mxCell>
        <mxCell id="A4NnMp-pcTULbfI7vZ6G-2" value="ClassB" style="swimlane;fontStyle=1;align=center;verticalAlign=top;childLayout=stackLayout;horizontal=1;startSize=26;horizontalStack=0;resizeParent=1;resizeParentMax=0;resizeLast=0;collapsible=1;marginBottom=0;" vertex="1" parent="1">
          <mxGeometry x="50.000024414062494" y="162.0000244140625" width="160" height="90" as="geometry" />
        </mxCell>
        <mxCell id="A4NnMp-pcTULbfI7vZ6G-3" value="+ field: type" style="text;strokeColor=none;fillColor=none;align=left;verticalAlign=top;spacingLeft=4;spacingRight=4;overflow=hidden;rotatable=0;points=[[0,0.5],[1,0.5]];portConstraint=eastwest;" vertex="1" parent="A4NnMp-pcTULbfI7vZ6G-2">
          <mxGeometry y="26" width="160" height="24" as="geometry" />
        </mxCell>
        <mxCell id="A4NnMp-pcTULbfI7vZ6G-4" value="" style="line;strokeWidth=1;fillColor=none;align=left;verticalAlign=middle;spacingTop=-1;spacingLeft=3;spacingRight=3;rotatable=0;labelPosition=right;points=[];portConstraint=eastwest;" vertex="1" parent="A4NnMp-pcTULbfI7vZ6G-2">
          <mxGeometry y="50" width="160" height="8" as="geometry" />
        </mxCell>
        <mxCell id="A4NnMp-pcTULbfI7vZ6G-5" value="+ method(type): type" style="text;strokeColor=none;fillColor=none;align=left;verticalAlign=top;spacingLeft=4;spacingRight=4;overflow=hidden;rotatable=0;points=[[0,0.5],[1,0.5]];portConstraint=eastwest;" vertex="1" parent="A4NnMp-pcTULbfI7vZ6G-2">
          <mxGeometry y="58" width="160" height="32" as="geometry" />
        </mxCell>
        <mxCell id="A4NnMp-pcTULbfI7vZ6G-6" value="Book" style="swimlane;fontStyle=1;align=center;verticalAlign=top;childLayout=stackLayout;horizontal=1;startSize=26;horizontalStack=0;resizeParent=1;resizeParentMax=0;resizeLast=0;collapsible=1;marginBottom=0;" vertex="1" parent="1">
          <mxGeometry x="350.0000244140625" y="162.0000244140625" width="160" height="90" as="geometry" />
        </mxCell>
        <mxCell id="A4NnMp-pcTULbfI7vZ6G-7" value="+ field: type" style="text;strokeColor=none;fillColor=none;align=left;verticalAlign=top;spacingLeft=4;spacingRight=4;overflow=hidden;rotatable=0;points=[[0,0.5],[1,0.5]];portConstraint=eastwest;" vertex="1" parent="A4NnMp-pcTULbfI7vZ6G-6">
          <mxGeometry y="26" width="160" height="24" as="geometry" />
        </mxCell>
        <mxCell id="A4NnMp-pcTULbfI7vZ6G-8" value="" style="line;strokeWidth=1;fillColor=none;align=left;verticalAlign=middle;spacingTop=-1;spacingLeft=3;spacingRight=3;rotatable=0;labelPosition=right;points=[];portConstraint=eastwest;" vertex="1" parent="A4NnMp-pcTULbfI7vZ6G-6">
          <mxGeometry y="50" width="160" height="8" as="geometry" />
        </mxCell>
        <mxCell id="A4NnMp-pcTULbfI7vZ6G-9" value="+ method(type): type" style="text;strokeColor=none;fillColor=none;align=left;verticalAlign=top;spacingLeft=4;spacingRight=4;overflow=hidden;rotatable=0;points=[[0,0.5],[1,0.5]];portConstraint=eastwest;" vertex="1" parent="A4NnMp-pcTULbfI7vZ6G-6">
          <mxGeometry y="58" width="160" height="32" as="geometry" />
        </mxCell>
        <mxCell id="A4NnMp-pcTULbfI7vZ6G-10" value="Conceptual" style="text;html=1;align=center;verticalAlign=middle;resizable=0;points=[];autosize=1;" vertex="1" parent="1">
          <mxGeometry x="90.0000244140625" y="132.0000244140625" width="80" height="20" as="geometry" />
        </mxCell>
        <mxCell id="A4NnMp-pcTULbfI7vZ6G-11" value="Example" style="text;html=1;align=center;verticalAlign=middle;resizable=0;points=[];autosize=1;" vertex="1" parent="1">
          <mxGeometry x="394.0000244140625" y="132.0000244140625" width="60" height="20" as="geometry" />
        </mxCell>
        <mxCell id="A4NnMp-pcTULbfI7vZ6G-12" value="" style="endArrow=none;dashed=1;html=1;dashPattern=1 3;strokeWidth=2;" edge="1" parent="1">
          <mxGeometry width="50" height="50" relative="1" as="geometry">
            <mxPoint x="279.5000244140625" y="402.0000244140625" as="sourcePoint" />
            <mxPoint x="279.5000244140625" y="142.0000244140625" as="targetPoint" />
          </mxGeometry>
        </mxCell>
        <mxCell id="A4NnMp-pcTULbfI7vZ6G-13" style="edgeStyle=none;rounded=0;orthogonalLoop=1;jettySize=auto;html=1;endArrow=diamond;endFill=0;entryX=0.5;entryY=0;entryDx=0;entryDy=0;exitX=0.498;exitY=1.018;exitDx=0;exitDy=0;exitPerimeter=0;startArrow=open;startFill=0;endSize=12;startSize=12;" edge="1" parent="1" source="A4NnMp-pcTULbfI7vZ6G-5" target="A4NnMp-pcTULbfI7vZ6G-14">
          <mxGeometry relative="1" as="geometry">
            <mxPoint x="180.0000244140625" y="275.0000244140625" as="sourcePoint" />
            <mxPoint x="210.0000244140625" y="292.0000244140625" as="targetPoint" />
          </mxGeometry>
        </mxCell>
        <mxCell id="A4NnMp-pcTULbfI7vZ6G-14" value="ClassA" style="swimlane;fontStyle=1;align=center;verticalAlign=top;childLayout=stackLayout;horizontal=1;startSize=26;horizontalStack=0;resizeParent=1;resizeParentMax=0;resizeLast=0;collapsible=1;marginBottom=0;" vertex="1" parent="1">
          <mxGeometry x="50.000024414062494" y="302.0000244140625" width="160" height="90" as="geometry" />
        </mxCell>
        <mxCell id="A4NnMp-pcTULbfI7vZ6G-15" value="+ field: type" style="text;strokeColor=none;fillColor=none;align=left;verticalAlign=top;spacingLeft=4;spacingRight=4;overflow=hidden;rotatable=0;points=[[0,0.5],[1,0.5]];portConstraint=eastwest;" vertex="1" parent="A4NnMp-pcTULbfI7vZ6G-14">
          <mxGeometry y="26" width="160" height="24" as="geometry" />
        </mxCell>
        <mxCell id="A4NnMp-pcTULbfI7vZ6G-16" value="" style="line;strokeWidth=1;fillColor=none;align=left;verticalAlign=middle;spacingTop=-1;spacingLeft=3;spacingRight=3;rotatable=0;labelPosition=right;points=[];portConstraint=eastwest;" vertex="1" parent="A4NnMp-pcTULbfI7vZ6G-14">
          <mxGeometry y="50" width="160" height="8" as="geometry" />
        </mxCell>
        <mxCell id="A4NnMp-pcTULbfI7vZ6G-17" value="+ method(type): type" style="text;strokeColor=none;fillColor=none;align=left;verticalAlign=top;spacingLeft=4;spacingRight=4;overflow=hidden;rotatable=0;points=[[0,0.5],[1,0.5]];portConstraint=eastwest;" vertex="1" parent="A4NnMp-pcTULbfI7vZ6G-14">
          <mxGeometry y="58" width="160" height="32" as="geometry" />
        </mxCell>
        <mxCell id="A4NnMp-pcTULbfI7vZ6G-18" value="Library" style="swimlane;fontStyle=1;align=center;verticalAlign=top;childLayout=stackLayout;horizontal=1;startSize=26;horizontalStack=0;resizeParent=1;resizeParentMax=0;resizeLast=0;collapsible=1;marginBottom=0;" vertex="1" parent="1">
          <mxGeometry x="350.0000244140625" y="302.0000244140625" width="160" height="90" as="geometry" />
        </mxCell>
        <mxCell id="A4NnMp-pcTULbfI7vZ6G-19" value="+ field: type" style="text;strokeColor=none;fillColor=none;align=left;verticalAlign=top;spacingLeft=4;spacingRight=4;overflow=hidden;rotatable=0;points=[[0,0.5],[1,0.5]];portConstraint=eastwest;" vertex="1" parent="A4NnMp-pcTULbfI7vZ6G-18">
          <mxGeometry y="26" width="160" height="24" as="geometry" />
        </mxCell>
        <mxCell id="A4NnMp-pcTULbfI7vZ6G-20" value="" style="line;strokeWidth=1;fillColor=none;align=left;verticalAlign=middle;spacingTop=-1;spacingLeft=3;spacingRight=3;rotatable=0;labelPosition=right;points=[];portConstraint=eastwest;" vertex="1" parent="A4NnMp-pcTULbfI7vZ6G-18">
          <mxGeometry y="50" width="160" height="8" as="geometry" />
        </mxCell>
        <mxCell id="A4NnMp-pcTULbfI7vZ6G-21" value="+ method(type): type" style="text;strokeColor=none;fillColor=none;align=left;verticalAlign=top;spacingLeft=4;spacingRight=4;overflow=hidden;rotatable=0;points=[[0,0.5],[1,0.5]];portConstraint=eastwest;" vertex="1" parent="A4NnMp-pcTULbfI7vZ6G-18">
          <mxGeometry y="58" width="160" height="32" as="geometry" />
        </mxCell>
        <mxCell id="A4NnMp-pcTULbfI7vZ6G-22" style="edgeStyle=none;rounded=0;orthogonalLoop=1;jettySize=auto;html=1;endArrow=diamond;endFill=0;exitX=0.502;exitY=1.036;exitDx=0;exitDy=0;exitPerimeter=0;entryX=0.5;entryY=0;entryDx=0;entryDy=0;startArrow=open;startFill=0;endSize=12;startSize=12;" edge="1" parent="1" source="A4NnMp-pcTULbfI7vZ6G-9" target="A4NnMp-pcTULbfI7vZ6G-18">
          <mxGeometry relative="1" as="geometry">
            <mxPoint x="190.0000244140625" y="332.0000244140625" as="sourcePoint" />
            <mxPoint x="510.0000244140625" y="302.0000244140625" as="targetPoint" />
          </mxGeometry>
        </mxCell>
        <mxCell id="A4NnMp-pcTULbfI7vZ6G-23" value="&lt;span style=&quot;color: rgb(245, 246, 247); font-family: system-ui, -apple-system, &amp;quot;Segoe UI&amp;quot;, Roboto, Ubuntu, Cantarell, &amp;quot;Noto Sans&amp;quot;, sans-serif, BlinkMacSystemFont, &amp;quot;Segoe UI&amp;quot;, Helvetica, Arial, sans-serif, &amp;quot;Apple Color Emoji&amp;quot;, &amp;quot;Segoe UI Emoji&amp;quot;, &amp;quot;Segoe UI Symbol&amp;quot;; font-size: 18px; orphans: 4; text-align: start; background-color: rgb(24, 25, 26);&quot;&gt;图书馆聚合书籍。书籍和图书馆可以相互独立存在。没有图书馆，书也可以存在&lt;/span&gt;" style="text;html=1;align=center;verticalAlign=middle;resizable=0;points=[];autosize=1;strokeColor=none;fillColor=none;fontSize=20;" vertex="1" parent="1">
          <mxGeometry x="-44" y="62" width="648" height="36" as="geometry" />
        </mxCell>
      </root>
    </mxGraphModel>
  </diagram>
  <diagram id="oInQ9OtDDhMy0mbJFK2k" name="组成">
    <mxGraphModel dx="1038" dy="605" grid="0" gridSize="10" guides="1" tooltips="1" connect="1" arrows="1" fold="1" page="0" pageScale="1" pageWidth="827" pageHeight="1169" math="0" shadow="0">
      <root>
        <mxCell id="0" />
        <mxCell id="1" parent="0" />
        <mxCell id="YcPPfmwugAiZonE3QKV3-1" value="" style="rounded=0;whiteSpace=wrap;html=1;" vertex="1" parent="1">
          <mxGeometry x="21.000024414062494" y="128.0000244140625" width="600" height="300" as="geometry" />
        </mxCell>
        <mxCell id="YcPPfmwugAiZonE3QKV3-2" value="ClassB" style="swimlane;fontStyle=1;align=center;verticalAlign=top;childLayout=stackLayout;horizontal=1;startSize=26;horizontalStack=0;resizeParent=1;resizeParentMax=0;resizeLast=0;collapsible=1;marginBottom=0;" vertex="1" parent="1">
          <mxGeometry x="91.0000244140625" y="168.0000244140625" width="160" height="90" as="geometry" />
        </mxCell>
        <mxCell id="YcPPfmwugAiZonE3QKV3-3" value="+ field: type" style="text;strokeColor=none;fillColor=none;align=left;verticalAlign=top;spacingLeft=4;spacingRight=4;overflow=hidden;rotatable=0;points=[[0,0.5],[1,0.5]];portConstraint=eastwest;" vertex="1" parent="YcPPfmwugAiZonE3QKV3-2">
          <mxGeometry y="26" width="160" height="24" as="geometry" />
        </mxCell>
        <mxCell id="YcPPfmwugAiZonE3QKV3-4" value="" style="line;strokeWidth=1;fillColor=none;align=left;verticalAlign=middle;spacingTop=-1;spacingLeft=3;spacingRight=3;rotatable=0;labelPosition=right;points=[];portConstraint=eastwest;" vertex="1" parent="YcPPfmwugAiZonE3QKV3-2">
          <mxGeometry y="50" width="160" height="8" as="geometry" />
        </mxCell>
        <mxCell id="YcPPfmwugAiZonE3QKV3-5" value="+ method(type): type" style="text;strokeColor=none;fillColor=none;align=left;verticalAlign=top;spacingLeft=4;spacingRight=4;overflow=hidden;rotatable=0;points=[[0,0.5],[1,0.5]];portConstraint=eastwest;" vertex="1" parent="YcPPfmwugAiZonE3QKV3-2">
          <mxGeometry y="58" width="160" height="32" as="geometry" />
        </mxCell>
        <mxCell id="YcPPfmwugAiZonE3QKV3-6" value="Wings" style="swimlane;fontStyle=1;align=center;verticalAlign=top;childLayout=stackLayout;horizontal=1;startSize=26;horizontalStack=0;resizeParent=1;resizeParentMax=0;resizeLast=0;collapsible=1;marginBottom=0;" vertex="1" parent="1">
          <mxGeometry x="391.0000244140625" y="168.0000244140625" width="160" height="90" as="geometry" />
        </mxCell>
        <mxCell id="YcPPfmwugAiZonE3QKV3-7" value="+ field: type" style="text;strokeColor=none;fillColor=none;align=left;verticalAlign=top;spacingLeft=4;spacingRight=4;overflow=hidden;rotatable=0;points=[[0,0.5],[1,0.5]];portConstraint=eastwest;" vertex="1" parent="YcPPfmwugAiZonE3QKV3-6">
          <mxGeometry y="26" width="160" height="24" as="geometry" />
        </mxCell>
        <mxCell id="YcPPfmwugAiZonE3QKV3-8" value="" style="line;strokeWidth=1;fillColor=none;align=left;verticalAlign=middle;spacingTop=-1;spacingLeft=3;spacingRight=3;rotatable=0;labelPosition=right;points=[];portConstraint=eastwest;" vertex="1" parent="YcPPfmwugAiZonE3QKV3-6">
          <mxGeometry y="50" width="160" height="8" as="geometry" />
        </mxCell>
        <mxCell id="YcPPfmwugAiZonE3QKV3-9" value="+ method(type): type" style="text;strokeColor=none;fillColor=none;align=left;verticalAlign=top;spacingLeft=4;spacingRight=4;overflow=hidden;rotatable=0;points=[[0,0.5],[1,0.5]];portConstraint=eastwest;" vertex="1" parent="YcPPfmwugAiZonE3QKV3-6">
          <mxGeometry y="58" width="160" height="32" as="geometry" />
        </mxCell>
        <mxCell id="YcPPfmwugAiZonE3QKV3-10" value="Conceptual" style="text;html=1;align=center;verticalAlign=middle;resizable=0;points=[];autosize=1;" vertex="1" parent="1">
          <mxGeometry x="131.0000244140625" y="138.0000244140625" width="80" height="20" as="geometry" />
        </mxCell>
        <mxCell id="YcPPfmwugAiZonE3QKV3-11" value="Example" style="text;html=1;align=center;verticalAlign=middle;resizable=0;points=[];autosize=1;" vertex="1" parent="1">
          <mxGeometry x="441.0000244140625" y="138.0000244140625" width="60" height="20" as="geometry" />
        </mxCell>
        <mxCell id="YcPPfmwugAiZonE3QKV3-12" value="" style="endArrow=none;dashed=1;html=1;dashPattern=1 3;strokeWidth=2;" edge="1" parent="1">
          <mxGeometry width="50" height="50" relative="1" as="geometry">
            <mxPoint x="320.5000244140625" y="408.0000244140625" as="sourcePoint" />
            <mxPoint x="320.5000244140625" y="148.0000244140625" as="targetPoint" />
          </mxGeometry>
        </mxCell>
        <mxCell id="YcPPfmwugAiZonE3QKV3-13" style="edgeStyle=none;rounded=0;orthogonalLoop=1;jettySize=auto;html=1;endArrow=diamond;endFill=1;entryX=0.5;entryY=0;entryDx=0;entryDy=0;exitX=0.498;exitY=1.018;exitDx=0;exitDy=0;exitPerimeter=0;startArrow=open;startFill=0;endSize=12;startSize=12;" edge="1" parent="1" source="YcPPfmwugAiZonE3QKV3-5" target="YcPPfmwugAiZonE3QKV3-14">
          <mxGeometry relative="1" as="geometry">
            <mxPoint x="221.0000244140625" y="281.0000244140625" as="sourcePoint" />
            <mxPoint x="251.0000244140625" y="298.0000244140625" as="targetPoint" />
          </mxGeometry>
        </mxCell>
        <mxCell id="YcPPfmwugAiZonE3QKV3-14" value="ClassA" style="swimlane;fontStyle=1;align=center;verticalAlign=top;childLayout=stackLayout;horizontal=1;startSize=26;horizontalStack=0;resizeParent=1;resizeParentMax=0;resizeLast=0;collapsible=1;marginBottom=0;" vertex="1" parent="1">
          <mxGeometry x="91.0000244140625" y="308.0000244140625" width="160" height="90" as="geometry" />
        </mxCell>
        <mxCell id="YcPPfmwugAiZonE3QKV3-15" value="+ field: type" style="text;strokeColor=none;fillColor=none;align=left;verticalAlign=top;spacingLeft=4;spacingRight=4;overflow=hidden;rotatable=0;points=[[0,0.5],[1,0.5]];portConstraint=eastwest;" vertex="1" parent="YcPPfmwugAiZonE3QKV3-14">
          <mxGeometry y="26" width="160" height="24" as="geometry" />
        </mxCell>
        <mxCell id="YcPPfmwugAiZonE3QKV3-16" value="" style="line;strokeWidth=1;fillColor=none;align=left;verticalAlign=middle;spacingTop=-1;spacingLeft=3;spacingRight=3;rotatable=0;labelPosition=right;points=[];portConstraint=eastwest;" vertex="1" parent="YcPPfmwugAiZonE3QKV3-14">
          <mxGeometry y="50" width="160" height="8" as="geometry" />
        </mxCell>
        <mxCell id="YcPPfmwugAiZonE3QKV3-17" value="+ method(type): type" style="text;strokeColor=none;fillColor=none;align=left;verticalAlign=top;spacingLeft=4;spacingRight=4;overflow=hidden;rotatable=0;points=[[0,0.5],[1,0.5]];portConstraint=eastwest;" vertex="1" parent="YcPPfmwugAiZonE3QKV3-14">
          <mxGeometry y="58" width="160" height="32" as="geometry" />
        </mxCell>
        <mxCell id="YcPPfmwugAiZonE3QKV3-18" value="Aeroplane" style="swimlane;fontStyle=1;align=center;verticalAlign=top;childLayout=stackLayout;horizontal=1;startSize=26;horizontalStack=0;resizeParent=1;resizeParentMax=0;resizeLast=0;collapsible=1;marginBottom=0;" vertex="1" parent="1">
          <mxGeometry x="391.0000244140625" y="308.0000244140625" width="160" height="90" as="geometry" />
        </mxCell>
        <mxCell id="YcPPfmwugAiZonE3QKV3-19" value="+ field: type" style="text;strokeColor=none;fillColor=none;align=left;verticalAlign=top;spacingLeft=4;spacingRight=4;overflow=hidden;rotatable=0;points=[[0,0.5],[1,0.5]];portConstraint=eastwest;" vertex="1" parent="YcPPfmwugAiZonE3QKV3-18">
          <mxGeometry y="26" width="160" height="24" as="geometry" />
        </mxCell>
        <mxCell id="YcPPfmwugAiZonE3QKV3-20" value="" style="line;strokeWidth=1;fillColor=none;align=left;verticalAlign=middle;spacingTop=-1;spacingLeft=3;spacingRight=3;rotatable=0;labelPosition=right;points=[];portConstraint=eastwest;" vertex="1" parent="YcPPfmwugAiZonE3QKV3-18">
          <mxGeometry y="50" width="160" height="8" as="geometry" />
        </mxCell>
        <mxCell id="YcPPfmwugAiZonE3QKV3-21" value="+ method(type): type" style="text;strokeColor=none;fillColor=none;align=left;verticalAlign=top;spacingLeft=4;spacingRight=4;overflow=hidden;rotatable=0;points=[[0,0.5],[1,0.5]];portConstraint=eastwest;" vertex="1" parent="YcPPfmwugAiZonE3QKV3-18">
          <mxGeometry y="58" width="160" height="32" as="geometry" />
        </mxCell>
        <mxCell id="YcPPfmwugAiZonE3QKV3-22" style="edgeStyle=none;rounded=0;orthogonalLoop=1;jettySize=auto;html=1;endArrow=diamond;endFill=1;exitX=0.502;exitY=1.036;exitDx=0;exitDy=0;exitPerimeter=0;entryX=0.5;entryY=0;entryDx=0;entryDy=0;startArrow=open;startFill=0;endSize=12;startSize=12;" edge="1" parent="1" source="YcPPfmwugAiZonE3QKV3-9" target="YcPPfmwugAiZonE3QKV3-18">
          <mxGeometry relative="1" as="geometry">
            <mxPoint x="231.0000244140625" y="338.0000244140625" as="sourcePoint" />
            <mxPoint x="551.0000244140625" y="308.0000244140625" as="targetPoint" />
          </mxGeometry>
        </mxCell>
        <mxCell id="YcPPfmwugAiZonE3QKV3-23" value="&lt;p style=&quot;box-sizing: inherit; margin: 2px 0px; line-height: 1.3; overflow-wrap: break-word; color: rgb(24, 32, 38); font-family: -apple-system, BlinkMacSystemFont, &amp;quot;Segoe UI&amp;quot;, Roboto, Oxygen, Ubuntu, Cantarell, &amp;quot;Open Sans&amp;quot;, &amp;quot;Helvetica Neue&amp;quot;, Icons16, sans-serif; font-size: 14px; text-align: start;&quot;&gt;A类由B类组成&lt;/p&gt;&lt;p style=&quot;box-sizing: inherit; margin: 2px 0px; line-height: 1.3; overflow-wrap: break-word; color: rgb(24, 32, 38); font-family: -apple-system, BlinkMacSystemFont, &amp;quot;Segoe UI&amp;quot;, Roboto, Oxygen, Ubuntu, Cantarell, &amp;quot;Open Sans&amp;quot;, &amp;quot;Helvetica Neue&amp;quot;, Icons16, sans-serif; font-size: 14px; text-align: start;&quot;&gt;&lt;span style=&quot;background-color: initial;&quot;&gt;飞机可以由机翼和其他部分组成。但是，没有机翼的飞机不再是真正的飞机&lt;/span&gt;&lt;/p&gt;" style="text;html=1;align=center;verticalAlign=middle;resizable=0;points=[];autosize=1;strokeColor=none;fillColor=none;fontSize=20;" vertex="1" parent="1">
          <mxGeometry x="55" y="55" width="480" height="54" as="geometry" />
        </mxCell>
      </root>
    </mxGraphModel>
  </diagram>
  <diagram id="zJM5RE-vf89HZj3-o7bD" name="伪代码注释/说明">
    <mxGraphModel dx="1438" dy="605" grid="0" gridSize="10" guides="1" tooltips="1" connect="1" arrows="1" fold="1" page="0" pageScale="1" pageWidth="827" pageHeight="1169" math="0" shadow="0">
      <root>
        <mxCell id="0" />
        <mxCell id="1" parent="0" />
        <mxCell id="mXjQfI3g8N0z4Cqccrys-1" value="" style="rounded=0;whiteSpace=wrap;html=1;" vertex="1" parent="1">
          <mxGeometry x="-88.99997558593748" y="99.0000244140625" width="600" height="200" as="geometry" />
        </mxCell>
        <mxCell id="mXjQfI3g8N0z4Cqccrys-2" value="ConcreteClass" style="swimlane;fontStyle=1;align=center;verticalAlign=top;childLayout=stackLayout;horizontal=1;startSize=26;horizontalStack=0;resizeParent=1;resizeParentMax=0;resizeLast=0;collapsible=1;marginBottom=0;" vertex="1" parent="1">
          <mxGeometry x="251.00002441406252" y="139.0000244140625" width="160" height="60" as="geometry" />
        </mxCell>
        <mxCell id="mXjQfI3g8N0z4Cqccrys-3" value="" style="line;strokeWidth=1;fillColor=none;align=left;verticalAlign=middle;spacingTop=-1;spacingLeft=3;spacingRight=3;rotatable=0;labelPosition=right;points=[];portConstraint=eastwest;" vertex="1" parent="mXjQfI3g8N0z4Cqccrys-2">
          <mxGeometry y="26" width="160" height="8" as="geometry" />
        </mxCell>
        <mxCell id="mXjQfI3g8N0z4Cqccrys-4" value="+ request(type): type" style="text;strokeColor=none;fillColor=none;align=left;verticalAlign=top;spacingLeft=4;spacingRight=4;overflow=hidden;rotatable=0;points=[[0,0.5],[1,0.5]];portConstraint=eastwest;" vertex="1" parent="mXjQfI3g8N0z4Cqccrys-2">
          <mxGeometry y="34" width="160" height="26" as="geometry" />
        </mxCell>
        <mxCell id="mXjQfI3g8N0z4Cqccrys-5" value="...&#xa;pseudocode()&#xa;..." style="shape=note;size=20;align=left;spacingLeft=15;" vertex="1" parent="1">
          <mxGeometry x="41.00002441406252" y="219.0000244140625" width="150" height="60" as="geometry" />
        </mxCell>
        <mxCell id="mXjQfI3g8N0z4Cqccrys-6" value="ClassB" style="swimlane;fontStyle=1;align=center;verticalAlign=top;childLayout=stackLayout;horizontal=1;startSize=26;horizontalStack=0;resizeParent=1;resizeParentMax=0;resizeLast=0;collapsible=1;marginBottom=0;" vertex="1" parent="1">
          <mxGeometry x="-48.99997558593748" y="139.0000244140625" width="160" height="60" as="geometry" />
        </mxCell>
        <mxCell id="mXjQfI3g8N0z4Cqccrys-7" value="" style="line;strokeWidth=1;fillColor=none;align=left;verticalAlign=middle;spacingTop=-1;spacingLeft=3;spacingRight=3;rotatable=0;labelPosition=right;points=[];portConstraint=eastwest;" vertex="1" parent="mXjQfI3g8N0z4Cqccrys-6">
          <mxGeometry y="26" width="160" height="8" as="geometry" />
        </mxCell>
        <mxCell id="mXjQfI3g8N0z4Cqccrys-8" value="+ method(type): type" style="text;strokeColor=none;fillColor=none;align=left;verticalAlign=top;spacingLeft=4;spacingRight=4;overflow=hidden;rotatable=0;points=[[0,0.5],[1,0.5]];portConstraint=eastwest;" vertex="1" parent="mXjQfI3g8N0z4Cqccrys-6">
          <mxGeometry y="34" width="160" height="26" as="geometry" />
        </mxCell>
        <mxCell id="mXjQfI3g8N0z4Cqccrys-9" value="" style="endArrow=none;endFill=0;html=1;sketch=0;startArrow=oval;startFill=0;dashed=1;" edge="1" parent="1" target="mXjQfI3g8N0z4Cqccrys-5">
          <mxGeometry width="160" relative="1" as="geometry">
            <mxPoint x="78.33335774739578" y="189.0000244140625" as="sourcePoint" />
            <mxPoint x="280.0000244140625" y="139.0000244140625" as="targetPoint" />
          </mxGeometry>
        </mxCell>
        <mxCell id="mXjQfI3g8N0z4Cqccrys-10" value="" style="endArrow=none;dashed=1;html=1;dashPattern=1 3;strokeWidth=2;" edge="1" parent="1">
          <mxGeometry width="50" height="50" relative="1" as="geometry">
            <mxPoint x="211.00002441406252" y="279.0000244140625" as="sourcePoint" />
            <mxPoint x="210.50002441406252" y="119.0000244140625" as="targetPoint" />
          </mxGeometry>
        </mxCell>
        <mxCell id="mXjQfI3g8N0z4Cqccrys-11" value="Conceptual" style="text;html=1;align=center;verticalAlign=middle;resizable=0;points=[];autosize=1;" vertex="1" parent="1">
          <mxGeometry x="21.000024414062523" y="109.0000244140625" width="80" height="20" as="geometry" />
        </mxCell>
        <mxCell id="mXjQfI3g8N0z4Cqccrys-12" value="Example" style="text;html=1;align=center;verticalAlign=middle;resizable=0;points=[];autosize=1;" vertex="1" parent="1">
          <mxGeometry x="325.0000244140625" y="109.0000244140625" width="60" height="20" as="geometry" />
        </mxCell>
        <mxCell id="mXjQfI3g8N0z4Cqccrys-13" value="for each x in y&#xa;    print(x)" style="shape=note;size=20;align=left;spacingLeft=15;" vertex="1" parent="1">
          <mxGeometry x="341.0000244140625" y="219.0000244140625" width="150" height="60" as="geometry" />
        </mxCell>
        <mxCell id="mXjQfI3g8N0z4Cqccrys-14" value="" style="endArrow=none;endFill=0;html=1;sketch=0;startArrow=oval;startFill=0;dashed=1;" edge="1" parent="1" target="mXjQfI3g8N0z4Cqccrys-13">
          <mxGeometry width="160" relative="1" as="geometry">
            <mxPoint x="382.3333577473958" y="189.0000244140625" as="sourcePoint" />
            <mxPoint x="584.0000244140625" y="139.0000244140625" as="targetPoint" />
          </mxGeometry>
        </mxCell>
      </root>
    </mxGraphModel>
  </diagram>
</mxfile>
